<mxfile host="app.diagrams.net" modified="2024-05-07T18:42:32.344Z" agent="Mozilla/5.0 (Windows NT 10.0; Win64; x64) AppleWebKit/537.36 (KHTML, like Gecko) Chrome/124.0.0.0 Safari/537.36" version="24.3.1" etag="M1hKVvBCEAFEbndYn3CS" type="github">
  <diagram name="Strona-1" id="uPTc8snck_Bp2bCwG6Df">
    <mxGraphModel>
      <root>
        <mxCell id="0" />
        <mxCell id="1" parent="0" />
      </root>
    </mxGraphModel>
  </diagram>
</mxfile>
